<svg id="Layer_1" data-name="Layer 1" xmlns="http://www.w3.org/2000/svg" viewBox="0 0 874.24 886.12"><defs><style>.cls-1{fill:#005aa8;stroke:#fff;stroke-miterlimit:10;}.cls-2{fill:#f6be07;}</style></defs><g id="Fountian"><path class="cls-1" d="M640,717.3H602.59C622.71,756.1,637.09,810.72,640,874h77.61C711.82,810.72,683.08,753.23,640,717.3Z" transform="translate(-91.53 -76)"/><path class="cls-1" d="M815.3,875.39c-8.63-64.67-53.18-122.16-117.85-156.65H660.08c47.43,37.36,71.86,94.85,77.61,156.65Z" transform="translate(-91.53 -76)"/><path class="cls-1" d="M542.23,717.3V874h77.61C617,806.4,601.16,751.79,582.47,717.3Z" transform="translate(-91.53 -76)"/><path class="cls-1" d="M522.11,717.3H481.87C461.75,751.79,447.38,806.4,444.5,874h77.61Z" transform="translate(-91.53 -76)"/><path class="cls-1" d="M368.33,717.3c-64.67,35.93-109.23,92-117.85,156.65h77.61c5.75-63.23,30.18-119.28,77.61-156.65Z" transform="translate(-91.53 -76)"/><path class="cls-1" d="M463.18,717.3H425.82c-41.68,35.93-71.86,92-77.61,156.65h77.61C427.26,812.15,443.06,756.1,463.18,717.3Z" transform="translate(-91.53 -76)"/><path class="cls-1" d="M236.11,961.62H829.67c4.31-21.56,7.18-44.55,7.18-67.55H228.92C228.92,918.51,231.8,940.06,236.11,961.62Z" transform="translate(-91.53 -76)"/><path class="cls-1" d="M599.72,664.12H464.62c-18.68,0-33.05,15.81-33.05,33.06H634.21C634.21,678.49,618.4,664.12,599.72,664.12Z" transform="translate(-91.53 -76)"/></g><g id="Signal"><path class="cls-2" d="M913.63,309.16,965.77,257C724.36,15.66,333,15.66,91.53,257l52.14,52.13C356.29,96.58,701,96.58,913.63,309.16Z" transform="translate(-91.53 -76)"/><path class="cls-2" d="M792.49,430.29l52.14-52.13c-174.51-174.48-457.44-174.48-631.95,0l52.14,52.13C410.53,284.6,646.78,284.6,792.49,430.29Z" transform="translate(-91.53 -76)"/><path class="cls-2" d="M671.34,551.42l52.14-52.13c-107.6-107.59-282-107.59-389.66,0L386,551.42C464.77,472.62,592.54,472.62,671.34,551.42Z" transform="translate(-91.53 -76)"/></g></svg>